<?xml version="1.0" encoding="UTF-8" standalone="no"?>
<!DOCTYPE svg PUBLIC "-//W3C//DTD SVG 1.1//EN"
 "http://www.w3.org/Graphics/SVG/1.1/DTD/svg11.dtd">
<!-- Generated by graphviz version 2.43.0 (0)
 -->
<!-- Title: %3 Pages: 1 -->
<svg width="370pt" height="895pt"
 viewBox="0.00 0.00 369.50 895.00" xmlns="http://www.w3.org/2000/svg" xmlns:xlink="http://www.w3.org/1999/xlink">
<g id="graph0" class="graph" transform="scale(1 1) rotate(0) translate(4 891)">
<title>%3</title>
<polygon fill="white" stroke="transparent" points="-4,4 -4,-891 365.5,-891 365.5,4 -4,4"/>
<!-- (below main) -->
<g id="node1" class="node">
<title>(below main)</title>
<polygon fill="#ff0100" stroke="#ff0100" points="181,-784 109,-784 109,-721 181,-721 181,-784"/>
<text text-anchor="middle" x="145" y="-772" font-family="Arial" font-size="10.00" fill="#ffffff">libc.so.6</text>
<text text-anchor="middle" x="145" y="-761" font-family="Arial" font-size="10.00" fill="#ffffff">(below main)</text>
<text text-anchor="middle" x="145" y="-750" font-family="Arial" font-size="10.00" fill="#ffffff">99.95%</text>
<text text-anchor="middle" x="145" y="-739" font-family="Arial" font-size="10.00" fill="#ffffff">(0.00%)</text>
<text text-anchor="middle" x="145" y="-728" font-family="Arial" font-size="10.00" fill="#ffffff">2×</text>
</g>
<!-- main -->
<g id="node2" class="node">
<title>main</title>
<polygon fill="#ff0100" stroke="#ff0100" points="170,-681 120,-681 120,-618 170,-618 170,-681"/>
<text text-anchor="middle" x="145" y="-669" font-family="Arial" font-size="10.00" fill="#ffffff">tsp</text>
<text text-anchor="middle" x="145" y="-658" font-family="Arial" font-size="10.00" fill="#ffffff">main</text>
<text text-anchor="middle" x="145" y="-647" font-family="Arial" font-size="10.00" fill="#ffffff">99.95%</text>
<text text-anchor="middle" x="145" y="-636" font-family="Arial" font-size="10.00" fill="#ffffff">(0.00%)</text>
<text text-anchor="middle" x="145" y="-625" font-family="Arial" font-size="10.00" fill="#ffffff">1×</text>
</g>
<!-- (below main)&#45;&gt;main -->
<g id="edge1" class="edge">
<title>(below main)&#45;&gt;main</title>
<path fill="none" stroke="#ff0100" stroke-width="4" d="M145,-720.92C145,-711.61 145,-701.23 145,-691.36"/>
<polygon fill="#ff0100" stroke="#ff0100" stroke-width="4" points="148.5,-691.32 145,-681.32 141.5,-691.32 148.5,-691.32"/>
<text text-anchor="middle" x="162" y="-704" font-family="Arial" font-size="10.00" fill="#ff0100">99.95%</text>
<text text-anchor="middle" x="162" y="-693" font-family="Arial" font-size="10.00" fill="#ff0100">1×</text>
</g>
<!-- calc_each_dis -->
<g id="node6" class="node">
<title>calc_each_dis</title>
<polygon fill="#0d1375" stroke="#0d1375" points="89.5,-578 10.5,-578 10.5,-515 89.5,-515 89.5,-578"/>
<text text-anchor="middle" x="50" y="-566" font-family="Arial" font-size="10.00" fill="#ffffff">tsp</text>
<text text-anchor="middle" x="50" y="-555" font-family="Arial" font-size="10.00" fill="#ffffff">calc_each_dis</text>
<text text-anchor="middle" x="50" y="-544" font-family="Arial" font-size="10.00" fill="#ffffff">1.39%</text>
<text text-anchor="middle" x="50" y="-533" font-family="Arial" font-size="10.00" fill="#ffffff">(0.00%)</text>
<text text-anchor="middle" x="50" y="-522" font-family="Arial" font-size="10.00" fill="#ffffff">1×</text>
</g>
<!-- main&#45;&gt;calc_each_dis -->
<g id="edge9" class="edge">
<title>main&#45;&gt;calc_each_dis</title>
<path fill="none" stroke="#0d1375" stroke-width="0.5" d="M119.79,-621.7C108.04,-609.21 93.94,-594.21 81.49,-580.98"/>
<polygon fill="#0d1375" stroke="#0d1375" stroke-width="0.5" points="82.32,-580.07 79.03,-578.36 80.54,-581.75 82.32,-580.07"/>
<text text-anchor="middle" x="121" y="-601" font-family="Arial" font-size="10.00" fill="#0d1375">1.39%</text>
<text text-anchor="middle" x="121" y="-590" font-family="Arial" font-size="10.00" fill="#0d1375">1×</text>
</g>
<!-- farthest_insertion -->
<g id="node9" class="node">
<title>farthest_insertion</title>
<polygon fill="#0ba35e" stroke="#0ba35e" points="191,-578 99,-578 99,-515 191,-515 191,-578"/>
<text text-anchor="middle" x="145" y="-566" font-family="Arial" font-size="10.00" fill="#ffffff">tsp</text>
<text text-anchor="middle" x="145" y="-555" font-family="Arial" font-size="10.00" fill="#ffffff">farthest_insertion</text>
<text text-anchor="middle" x="145" y="-544" font-family="Arial" font-size="10.00" fill="#ffffff">36.40%</text>
<text text-anchor="middle" x="145" y="-533" font-family="Arial" font-size="10.00" fill="#ffffff">(36.40%)</text>
<text text-anchor="middle" x="145" y="-522" font-family="Arial" font-size="10.00" fill="#ffffff">9×</text>
</g>
<!-- main&#45;&gt;farthest_insertion -->
<g id="edge10" class="edge">
<title>main&#45;&gt;farthest_insertion</title>
<path fill="none" stroke="#0ba35e" stroke-width="1.46" d="M145,-617.92C145,-607.34 145,-595.37 145,-584.34"/>
<polygon fill="#0ba35e" stroke="#0ba35e" stroke-width="1.46" points="147.1,-584.32 145,-578.32 142.9,-584.32 147.1,-584.32"/>
<text text-anchor="middle" x="162" y="-601" font-family="Arial" font-size="10.00" fill="#0ba35e">36.40%</text>
<text text-anchor="middle" x="162" y="-590" font-family="Arial" font-size="10.00" fill="#0ba35e">9×</text>
</g>
<!-- local_search -->
<g id="node10" class="node">
<title>local_search</title>
<polygon fill="#63c708" stroke="#63c708" points="271.5,-578 200.5,-578 200.5,-515 271.5,-515 271.5,-578"/>
<text text-anchor="middle" x="236" y="-566" font-family="Arial" font-size="10.00" fill="#ffffff">tsp</text>
<text text-anchor="middle" x="236" y="-555" font-family="Arial" font-size="10.00" fill="#ffffff">local_search</text>
<text text-anchor="middle" x="236" y="-544" font-family="Arial" font-size="10.00" fill="#ffffff">61.90%</text>
<text text-anchor="middle" x="236" y="-533" font-family="Arial" font-size="10.00" fill="#ffffff">(0.00%)</text>
<text text-anchor="middle" x="236" y="-522" font-family="Arial" font-size="10.00" fill="#ffffff">60×</text>
</g>
<!-- main&#45;&gt;local_search -->
<g id="edge11" class="edge">
<title>main&#45;&gt;local_search</title>
<path fill="none" stroke="#63c708" stroke-width="2.48" d="M170.21,-620.91C173.84,-616.92 177.52,-612.86 181,-609 188.19,-601.04 195.88,-592.47 203.16,-584.33"/>
<polygon fill="#63c708" stroke="#63c708" stroke-width="2.48" points="205.43,-585.94 208.64,-578.21 201.31,-582.25 205.43,-585.94"/>
<text text-anchor="middle" x="218" y="-601" font-family="Arial" font-size="10.00" fill="#63c708">61.90%</text>
<text text-anchor="middle" x="218" y="-590" font-family="Arial" font-size="10.00" fill="#63c708">60×</text>
</g>
<!-- 0x000000000001f540 -->
<g id="node3" class="node">
<title>0x000000000001f540</title>
<polygon fill="#ff0000" stroke="#ff0000" points="199.5,-887 90.5,-887 90.5,-824 199.5,-824 199.5,-887"/>
<text text-anchor="middle" x="145" y="-875" font-family="Arial" font-size="10.00" fill="#ffffff">ld&#45;linux&#45;x86&#45;64.so.2</text>
<text text-anchor="middle" x="145" y="-864" font-family="Arial" font-size="10.00" fill="#ffffff">0x000000000001f540</text>
<text text-anchor="middle" x="145" y="-853" font-family="Arial" font-size="10.00" fill="#ffffff">100.00%</text>
<text text-anchor="middle" x="145" y="-842" font-family="Arial" font-size="10.00" fill="#ffffff">(0.00%)</text>
<text text-anchor="middle" x="145" y="-831" font-family="Arial" font-size="10.00" fill="#ffffff">0×</text>
</g>
<!-- 0x000000000001f540&#45;&gt;(below main) -->
<g id="edge2" class="edge">
<title>0x000000000001f540&#45;&gt;(below main)</title>
<path fill="none" stroke="#ff0100" stroke-width="4" d="M145,-823.92C145,-814.61 145,-804.23 145,-794.36"/>
<polygon fill="#ff0100" stroke="#ff0100" stroke-width="4" points="148.5,-794.32 145,-784.32 141.5,-794.32 148.5,-794.32"/>
<text text-anchor="middle" x="162" y="-807" font-family="Arial" font-size="10.00" fill="#ff0100">99.95%</text>
<text text-anchor="middle" x="162" y="-796" font-family="Arial" font-size="10.00" fill="#ff0100">1×</text>
</g>
<!-- 0x0000000000109310 -->
<g id="node4" class="node">
<title>0x0000000000109310</title>
<polygon fill="#0d2e7c" stroke="#0d2e7c" points="361.5,-372 250.5,-372 250.5,-309 361.5,-309 361.5,-372"/>
<text text-anchor="middle" x="306" y="-360" font-family="Arial" font-size="10.00" fill="#ffffff">???</text>
<text text-anchor="middle" x="306" y="-349" font-family="Arial" font-size="10.00" fill="#ffffff">0x0000000000109310</text>
<text text-anchor="middle" x="306" y="-338" font-family="Arial" font-size="10.00" fill="#ffffff">7.44%</text>
<text text-anchor="middle" x="306" y="-327" font-family="Arial" font-size="10.00" fill="#ffffff">(0.25%)</text>
<text text-anchor="middle" x="306" y="-316" font-family="Arial" font-size="10.00" fill="#ffffff">495369×</text>
</g>
<!-- rand -->
<g id="node5" class="node">
<title>rand</title>
<polygon fill="#0d2d7c" stroke="#0d2d7c" points="333,-269 279,-269 279,-206 333,-206 333,-269"/>
<text text-anchor="middle" x="306" y="-257" font-family="Arial" font-size="10.00" fill="#ffffff">libc.so.6</text>
<text text-anchor="middle" x="306" y="-246" font-family="Arial" font-size="10.00" fill="#ffffff">rand</text>
<text text-anchor="middle" x="306" y="-235" font-family="Arial" font-size="10.00" fill="#ffffff">7.18%</text>
<text text-anchor="middle" x="306" y="-224" font-family="Arial" font-size="10.00" fill="#ffffff">(0.76%)</text>
<text text-anchor="middle" x="306" y="-213" font-family="Arial" font-size="10.00" fill="#ffffff">495369×</text>
</g>
<!-- 0x0000000000109310&#45;&gt;rand -->
<g id="edge3" class="edge">
<title>0x0000000000109310&#45;&gt;rand</title>
<path fill="none" stroke="#0d2d7c" stroke-width="0.5" d="M306,-308.92C306,-297.56 306,-284.59 306,-272.9"/>
<polygon fill="#0d2d7c" stroke="#0d2d7c" stroke-width="0.5" points="307.23,-272.82 306,-269.32 304.78,-272.82 307.23,-272.82"/>
<text text-anchor="middle" x="325" y="-292" font-family="Arial" font-size="10.00" fill="#0d2d7c">7.18%</text>
<text text-anchor="middle" x="325" y="-281" font-family="Arial" font-size="10.00" fill="#0d2d7c">495369×</text>
</g>
<!-- random -->
<g id="node14" class="node">
<title>random</title>
<polygon fill="#0d297b" stroke="#0d297b" points="333,-166 279,-166 279,-103 333,-103 333,-166"/>
<text text-anchor="middle" x="306" y="-154" font-family="Arial" font-size="10.00" fill="#ffffff">libc.so.6</text>
<text text-anchor="middle" x="306" y="-143" font-family="Arial" font-size="10.00" fill="#ffffff">random</text>
<text text-anchor="middle" x="306" y="-132" font-family="Arial" font-size="10.00" fill="#ffffff">6.43%</text>
<text text-anchor="middle" x="306" y="-121" font-family="Arial" font-size="10.00" fill="#ffffff">(2.90%)</text>
<text text-anchor="middle" x="306" y="-110" font-family="Arial" font-size="10.00" fill="#ffffff">495369×</text>
</g>
<!-- rand&#45;&gt;random -->
<g id="edge12" class="edge">
<title>rand&#45;&gt;random</title>
<path fill="none" stroke="#0d297b" stroke-width="0.5" d="M306,-205.92C306,-194.56 306,-181.59 306,-169.9"/>
<polygon fill="#0d297b" stroke="#0d297b" stroke-width="0.5" points="307.23,-169.82 306,-166.32 304.78,-169.82 307.23,-169.82"/>
<text text-anchor="middle" x="325" y="-189" font-family="Arial" font-size="10.00" fill="#0d297b">6.43%</text>
<text text-anchor="middle" x="325" y="-178" font-family="Arial" font-size="10.00" fill="#0d297b">495369×</text>
</g>
<!-- calc_each_euc_dis -->
<g id="node7" class="node">
<title>calc_each_euc_dis</title>
<polygon fill="#0d1375" stroke="#0d1375" points="100,-475 0,-475 0,-412 100,-412 100,-475"/>
<text text-anchor="middle" x="50" y="-463" font-family="Arial" font-size="10.00" fill="#ffffff">tsp</text>
<text text-anchor="middle" x="50" y="-452" font-family="Arial" font-size="10.00" fill="#ffffff">calc_each_euc_dis</text>
<text text-anchor="middle" x="50" y="-441" font-family="Arial" font-size="10.00" fill="#ffffff">1.39%</text>
<text text-anchor="middle" x="50" y="-430" font-family="Arial" font-size="10.00" fill="#ffffff">(0.76%)</text>
<text text-anchor="middle" x="50" y="-419" font-family="Arial" font-size="10.00" fill="#ffffff">1×</text>
</g>
<!-- calc_each_dis&#45;&gt;calc_each_euc_dis -->
<g id="edge4" class="edge">
<title>calc_each_dis&#45;&gt;calc_each_euc_dis</title>
<path fill="none" stroke="#0d1375" stroke-width="0.5" d="M50,-514.92C50,-503.56 50,-490.59 50,-478.9"/>
<polygon fill="#0d1375" stroke="#0d1375" stroke-width="0.5" points="51.23,-478.82 50,-475.32 48.78,-478.82 51.23,-478.82"/>
<text text-anchor="middle" x="64" y="-498" font-family="Arial" font-size="10.00" fill="#0d1375">1.39%</text>
<text text-anchor="middle" x="64" y="-487" font-family="Arial" font-size="10.00" fill="#0d1375">1×</text>
</g>
<!-- calc_euc_dis -->
<g id="node8" class="node">
<title>calc_euc_dis</title>
<polygon fill="#0d0f74" stroke="#0d0f74" points="87,-372 13,-372 13,-309 87,-309 87,-372"/>
<text text-anchor="middle" x="50" y="-360" font-family="Arial" font-size="10.00" fill="#ffffff">tsp</text>
<text text-anchor="middle" x="50" y="-349" font-family="Arial" font-size="10.00" fill="#ffffff">calc_euc_dis</text>
<text text-anchor="middle" x="50" y="-338" font-family="Arial" font-size="10.00" fill="#ffffff">0.63%</text>
<text text-anchor="middle" x="50" y="-327" font-family="Arial" font-size="10.00" fill="#ffffff">(0.13%)</text>
<text text-anchor="middle" x="50" y="-316" font-family="Arial" font-size="10.00" fill="#ffffff">17161×</text>
</g>
<!-- calc_each_euc_dis&#45;&gt;calc_euc_dis -->
<g id="edge5" class="edge">
<title>calc_each_euc_dis&#45;&gt;calc_euc_dis</title>
<path fill="none" stroke="#0d0f74" stroke-width="0.5" d="M50,-411.92C50,-400.56 50,-387.59 50,-375.9"/>
<polygon fill="#0d0f74" stroke="#0d0f74" stroke-width="0.5" points="51.23,-375.82 50,-372.32 48.78,-375.82 51.23,-375.82"/>
<text text-anchor="middle" x="66.5" y="-395" font-family="Arial" font-size="10.00" fill="#0d0f74">0.63%</text>
<text text-anchor="middle" x="66.5" y="-384" font-family="Arial" font-size="10.00" fill="#0d0f74">17161×</text>
</g>
<!-- or_one_opt -->
<g id="node11" class="node">
<title>or_one_opt</title>
<polygon fill="#0c658a" stroke="#0c658a" points="194.5,-475 129.5,-475 129.5,-412 194.5,-412 194.5,-475"/>
<text text-anchor="middle" x="162" y="-463" font-family="Arial" font-size="10.00" fill="#ffffff">tsp</text>
<text text-anchor="middle" x="162" y="-452" font-family="Arial" font-size="10.00" fill="#ffffff">or_one_opt</text>
<text text-anchor="middle" x="162" y="-441" font-family="Arial" font-size="10.00" fill="#ffffff">17.72%</text>
<text text-anchor="middle" x="162" y="-430" font-family="Arial" font-size="10.00" fill="#ffffff">(17.72%)</text>
<text text-anchor="middle" x="162" y="-419" font-family="Arial" font-size="10.00" fill="#ffffff">60×</text>
</g>
<!-- local_search&#45;&gt;or_one_opt -->
<g id="edge6" class="edge">
<title>local_search&#45;&gt;or_one_opt</title>
<path fill="none" stroke="#0c658a" stroke-width="0.71" d="M207.14,-514.92C204.65,-511.96 202.24,-508.96 200,-506 193.65,-497.58 187.38,-488.07 181.81,-479.08"/>
<polygon fill="#0c658a" stroke="#0c658a" stroke-width="0.71" points="182.92,-478.08 179.47,-475.27 180.42,-479.62 182.92,-478.08"/>
<text text-anchor="middle" x="217" y="-498" font-family="Arial" font-size="10.00" fill="#0c658a">17.72%</text>
<text text-anchor="middle" x="217" y="-487" font-family="Arial" font-size="10.00" fill="#0c658a">60×</text>
</g>
<!-- or_two_opt -->
<g id="node12" class="node">
<title>or_two_opt</title>
<polygon fill="#0c808f" stroke="#0c808f" points="268.5,-475 203.5,-475 203.5,-412 268.5,-412 268.5,-475"/>
<text text-anchor="middle" x="236" y="-463" font-family="Arial" font-size="10.00" fill="#ffffff">tsp</text>
<text text-anchor="middle" x="236" y="-452" font-family="Arial" font-size="10.00" fill="#ffffff">or_two_opt</text>
<text text-anchor="middle" x="236" y="-441" font-family="Arial" font-size="10.00" fill="#ffffff">22.02%</text>
<text text-anchor="middle" x="236" y="-430" font-family="Arial" font-size="10.00" fill="#ffffff">(22.02%)</text>
<text text-anchor="middle" x="236" y="-419" font-family="Arial" font-size="10.00" fill="#ffffff">60×</text>
</g>
<!-- local_search&#45;&gt;or_two_opt -->
<g id="edge7" class="edge">
<title>local_search&#45;&gt;or_two_opt</title>
<path fill="none" stroke="#0c808f" stroke-width="0.88" d="M236,-514.92C236,-503.95 236,-491.48 236,-480.12"/>
<polygon fill="#0c808f" stroke="#0c808f" stroke-width="0.88" points="237.65,-480.02 236,-475.32 234.36,-480.02 237.65,-480.02"/>
<text text-anchor="middle" x="253" y="-498" font-family="Arial" font-size="10.00" fill="#0c808f">22.02%</text>
<text text-anchor="middle" x="253" y="-487" font-family="Arial" font-size="10.00" fill="#0c808f">60×</text>
</g>
<!-- two_opt -->
<g id="node13" class="node">
<title>two_opt</title>
<polygon fill="#0c8190" stroke="#0c8190" points="334,-475 278,-475 278,-412 334,-412 334,-475"/>
<text text-anchor="middle" x="306" y="-463" font-family="Arial" font-size="10.00" fill="#ffffff">tsp</text>
<text text-anchor="middle" x="306" y="-452" font-family="Arial" font-size="10.00" fill="#ffffff">two_opt</text>
<text text-anchor="middle" x="306" y="-441" font-family="Arial" font-size="10.00" fill="#ffffff">22.15%</text>
<text text-anchor="middle" x="306" y="-430" font-family="Arial" font-size="10.00" fill="#ffffff">(14.72%)</text>
<text text-anchor="middle" x="306" y="-419" font-family="Arial" font-size="10.00" fill="#ffffff">60×</text>
</g>
<!-- local_search&#45;&gt;two_opt -->
<g id="edge8" class="edge">
<title>local_search&#45;&gt;two_opt</title>
<path fill="none" stroke="#0c8190" stroke-width="0.89" d="M265.39,-514.59C267.71,-511.75 269.95,-508.87 272,-506 277.93,-497.74 283.6,-488.33 288.55,-479.41"/>
<polygon fill="#0c8190" stroke="#0c8190" stroke-width="0.89" points="290.11,-479.99 290.93,-475.07 287.23,-478.41 290.11,-479.99"/>
<text text-anchor="middle" x="302" y="-498" font-family="Arial" font-size="10.00" fill="#0c8190">22.15%</text>
<text text-anchor="middle" x="302" y="-487" font-family="Arial" font-size="10.00" fill="#0c8190">60×</text>
</g>
<!-- two_opt&#45;&gt;0x0000000000109310 -->
<g id="edge14" class="edge">
<title>two_opt&#45;&gt;0x0000000000109310</title>
<path fill="none" stroke="#0d2e7c" stroke-width="0.5" d="M306,-411.92C306,-400.56 306,-387.59 306,-375.9"/>
<polygon fill="#0d2e7c" stroke="#0d2e7c" stroke-width="0.5" points="307.23,-375.82 306,-372.32 304.78,-375.82 307.23,-375.82"/>
<text text-anchor="middle" x="325" y="-395" font-family="Arial" font-size="10.00" fill="#0d2e7c">7.44%</text>
<text text-anchor="middle" x="325" y="-384" font-family="Arial" font-size="10.00" fill="#0d2e7c">495360×</text>
</g>
<!-- random_r -->
<g id="node15" class="node">
<title>random_r</title>
<polygon fill="#0d1c77" stroke="#0d1c77" points="334.5,-63 277.5,-63 277.5,0 334.5,0 334.5,-63"/>
<text text-anchor="middle" x="306" y="-51" font-family="Arial" font-size="10.00" fill="#ffffff">libc.so.6</text>
<text text-anchor="middle" x="306" y="-40" font-family="Arial" font-size="10.00" fill="#ffffff">random_r</text>
<text text-anchor="middle" x="306" y="-29" font-family="Arial" font-size="10.00" fill="#ffffff">3.53%</text>
<text text-anchor="middle" x="306" y="-18" font-family="Arial" font-size="10.00" fill="#ffffff">(3.53%)</text>
<text text-anchor="middle" x="306" y="-7" font-family="Arial" font-size="10.00" fill="#ffffff">495369×</text>
</g>
<!-- random&#45;&gt;random_r -->
<g id="edge13" class="edge">
<title>random&#45;&gt;random_r</title>
<path fill="none" stroke="#0d1c77" stroke-width="0.5" d="M306,-102.92C306,-91.56 306,-78.59 306,-66.9"/>
<polygon fill="#0d1c77" stroke="#0d1c77" stroke-width="0.5" points="307.23,-66.82 306,-63.32 304.78,-66.82 307.23,-66.82"/>
<text text-anchor="middle" x="325" y="-86" font-family="Arial" font-size="10.00" fill="#0d1c77">3.53%</text>
<text text-anchor="middle" x="325" y="-75" font-family="Arial" font-size="10.00" fill="#0d1c77">495369×</text>
</g>
</g>
</svg>
